<svg width="512" height="513" viewBox="0 0 512 513" fill="none" xmlns="http://www.w3.org/2000/svg">
<circle cx="256" cy="256.77" r="256" fill="#694D85"/>
<path d="M117.004 360.57C108.421 360.57 101.932 355.755 97.536 346.126L19.978 158.04C19.35 156.365 19.036 154.586 19.036 152.702C19.036 148.306 20.292 144.852 22.804 142.34C25.316 139.619 28.77 138.258 33.166 138.258C36.0967 138.258 38.7133 139.2 41.016 141.084C43.528 142.759 45.412 145.061 46.668 147.992L120.458 331.996L194.248 147.992C195.504 145.061 197.283 142.759 199.586 141.084C202.098 139.2 204.819 138.258 207.75 138.258C212.146 138.258 215.6 139.619 218.112 142.34C220.624 144.852 221.88 148.306 221.88 152.702C221.88 154.586 221.566 156.365 220.938 158.04L143.38 346.126C138.984 355.755 132.495 360.57 123.912 360.57H117.004ZM275.365 360.57C271.179 360.57 267.411 359.419 264.061 357.116C260.921 354.604 258.514 351.045 256.839 346.44L195.295 157.412C194.667 155.109 194.353 153.33 194.353 152.074C194.144 148.097 195.295 144.852 197.807 142.34C200.529 139.619 203.983 138.258 208.169 138.258C211.519 138.258 214.449 139.305 216.961 141.398C219.473 143.491 221.253 146.213 222.299 149.562L275.052 322.89L328.118 150.19C329.164 146.631 331.153 143.805 334.083 141.712C337.224 139.409 340.678 138.258 344.446 138.258C348.214 138.258 351.563 139.409 354.494 141.712C357.634 143.805 359.727 146.631 360.774 150.19L413.84 322.89L466.592 149.562C467.638 146.213 469.418 143.491 471.93 141.398C474.442 139.305 477.372 138.258 480.722 138.258C484.908 138.258 488.258 139.619 490.77 142.34C493.491 144.852 494.747 148.097 494.538 152.074C494.538 153.33 494.224 155.109 493.596 157.412L432.052 346.44C430.377 351.045 427.865 354.604 424.516 357.116C421.376 359.419 417.712 360.57 413.525 360.57C409.339 360.57 405.466 359.314 401.907 356.802C398.558 354.081 396.256 350.627 395 346.44L344.446 186.3L293.892 346.44C292.635 350.627 290.228 354.081 286.67 356.802C283.32 359.314 279.552 360.57 275.365 360.57Z" fill="white"/>
<path d="M241.773 313.076L183.3 133.831" stroke="#694D85" stroke-width="8" stroke-linecap="square" stroke-linejoin="round"/>
</svg>
